PathFileType  4	(X/Y/Z) C:\Users\15086\Documents\GitHub\mocap-processing\NordTesting\KristenNordTest\
DataRate	CameraRate	NumFrames	NumMarkers	Units	OrigDataRate	OrigDataStartFrame	OrigNumFrames
  200.0		  200.0		   5		     52		 mm	  200.0	      721	   2882
Frame#	Time	C7			R_Shoulder			L_Shoulder			Sternum			R_humerus			R_elbow_med			R_elbow_lat			R_forearm			R_wrist_radius			R_wrist_ulna			L_humerus			L_elbow_med			L_elbow_lat			L_forearm			L_wrist_radius			L_wrist_ulna			r.ASIS			r.PSIS			r_IC			L.ASIS			L.PSIS			l_IC			r_thigh1			r_thigh2			r_thigh3			r_thigh4			r_thigh5			r_knee			r_mknee			r_shank_antsup			r_sh2			r_sh3			r_sh4			r_ankle			r_mankle			r_calc			r_5meta			r_toe			L_thigh1			L_thigh2			L_thigh3			L_thigh4			L_knee			L_mknee			L_shank_antsup			L_sh2			L_sh3			L_ankle			L_mankle			L_calc			L_5meta			L_toe			
		X1	Y1	Z1	X2	Y2	Z2	X3	Y3	Z3	X4	Y4	Z4	X5	Y5	Z5	X6	Y6	Z6	X7	Y7	Z7	X8	Y8	Z8	X9	Y9	Z9	X10	Y10	Z10	X11	Y11	Z11	X12	Y12	Z12	X13	Y13	Z13	X14	Y14	Z14	X15	Y15	Z15	X16	Y16	Z16	X17	Y17	Z17	X18	Y18	Z18	X19	Y19	Z19	X20	Y20	Z20	X21	Y21	Z21	X22	Y22	Z22	X23	Y23	Z23	X24	Y24	Z24	X25	Y25	Z25	X26	Y26	Z26	X27	Y27	Z27	X28	Y28	Z28	X29	Y29	Z29	X30	Y30	Z30	X31	Y31	Z31	X32	Y32	Z32	X33	Y33	Z33	X34	Y34	Z34	X35	Y35	Z35	X36	Y36	Z36	X37	Y37	Z37	X38	Y38	Z38	X39	Y39	Z39	X40	Y40	Z40	X41	Y41	Z41	X42	Y42	Z42	X43	Y43	Z43	X44	Y44	Z44	X45	Y45	Z45	X46	Y46	Z46	X47	Y47	Z47	X48	Y48	Z48	X49	Y49	Z49	X50	Y50	Z50	X51	Y51	Z51	X52	Y52	Z52	

721	3.60000	1198.031	1273.269	-464.749	1318.635	1272.442	-508.881	1070.243	1283.492	-514.111	1197.916	1219.541	-592.976	1493.174	1266.990	-478.661	1633.173	1199.212	-505.030	1624.635	1246.523	-442.806	1614.501	1357.519	-512.154	1582.372	1428.400	-603.185	1621.927	1446.723	-580.959	866.565	1269.347	-497.251	752.264	1195.975	-543.997	745.953	1239.692	-481.793	793.263	1360.326	-559.932	843.910	1415.421	-623.868	789.557	1431.224	-624.034	1311.789	750.789	-525.068	1263.198	861.677	-369.730	1346.613	852.026	-481.118	1072.620	747.005	-515.659	1148.915	854.470	-368.231	1048.894	838.113	-479.508	1381.418	515.410	-442.894	1381.164	403.013	-415.905	1396.291	386.743	-361.940	1389.999	542.864	-337.837	1371.973	426.708	-313.621	1381.281	308.359	-351.896	1254.683	317.887	-334.599	1394.753	306.029	-222.163	1376.289	312.155	-103.020	1392.559	382.140	-224.051	1378.913	395.722	-110.929	1356.815	364.724	63.803	1280.288	337.365	48.751	1299.534	422.340	87.426	1374.627	269.784	143.538	1339.059	216.138	120.995	1004.911	511.131	-434.059	1007.570	376.849	-399.056	1006.878	546.347	-319.031	1015.648	412.348	-289.093	995.438	326.355	-317.796	1124.308	305.589	-318.152	982.220	315.747	-206.990	1001.546	405.218	-216.730	1015.462	406.727	-96.748	1024.280	380.870	90.910	1094.319	329.098	60.978	1076.550	426.481	102.108	1016.259	262.144	169.106	1054.864	209.037	138.716
722	3.60500	1198.004	1273.234	-465.168	1318.633	1272.370	-509.333	1070.268	1283.400	-514.587	1197.808	1219.307	-593.388	1493.257	1266.695	-479.067	1633.182	1199.002	-505.440	1624.640	1246.334	-443.218	1614.571	1357.243	-512.513	1582.354	1428.132	-603.649	1621.919	1446.473	-581.485	866.504	1269.157	-497.675	752.283	1195.617	-544.345	745.903	1239.428	-482.144	793.231	1359.970	-560.374	843.866	1415.021	-624.385	789.498	1430.858	-624.538	1311.778	750.745	-525.260	1263.228	861.727	-369.951	1346.659	851.977	-481.373	1072.613	746.909	-515.736	1148.969	854.487	-368.424	1048.937	838.066	-479.653	1381.482	515.368	-443.022	1381.169	402.947	-415.961	1396.299	386.744	-362.004	1390.047	542.876	-337.978	1372.036	426.723	-313.692	1381.287	308.355	-351.883	1254.679	317.915	-334.616	1394.716	305.998	-222.199	1376.321	312.211	-103.021	1392.401	382.180	-224.058	1379.149	394.861	-111.639	1356.934	364.810	63.780	1280.355	337.448	48.738	1299.624	422.450	87.363	1374.777	269.884	143.506	1339.193	216.238	120.997	1004.967	511.120	-434.061	1007.562	376.862	-399.048	1006.946	546.341	-319.037	1015.668	412.355	-289.095	995.461	326.383	-317.816	1124.279	305.586	-318.153	982.233	315.870	-206.971	1001.980	405.236	-216.656	1015.558	406.751	-96.761	1024.370	380.897	90.913	1094.392	329.128	60.984	1076.644	426.522	102.091	1016.336	262.187	169.142	1054.931	209.088	138.744
723	3.61000	1197.971	1273.219	-465.587	1318.619	1272.322	-509.805	1070.156	1283.311	-514.901	1197.825	1219.430	-593.757	1493.272	1266.555	-479.564	1633.164	1198.749	-505.851	1624.650	1246.151	-443.697	1614.578	1357.032	-512.983	1582.337	1427.886	-604.112	1621.879	1446.183	-581.975	866.478	1268.894	-498.064	752.297	1195.243	-544.670	745.867	1239.146	-482.488	793.222	1359.660	-560.886	843.822	1414.669	-624.875	789.424	1430.456	-625.038	1311.771	750.681	-525.428	1263.289	861.707	-370.182	1346.634	851.950	-481.646	1072.604	746.863	-515.846	1149.011	854.510	-368.590	1048.969	838.008	-479.809	1380.690	514.930	-442.693	1381.117	402.992	-416.706	1396.360	386.701	-362.126	1390.094	542.872	-338.109	1372.061	426.715	-313.778	1381.297	308.335	-351.931	1254.714	317.920	-334.635	1394.737	306.036	-222.368	1376.383	312.262	-103.057	1392.446	382.220	-224.071	1379.208	394.890	-111.722	1357.052	364.885	63.741	1280.407	337.628	48.728	1299.707	422.530	87.315	1374.900	270.002	143.502	1339.227	216.387	120.876	1004.946	511.106	-434.110	1007.591	376.867	-399.064	1006.969	546.383	-319.126	1015.694	412.364	-289.108	995.483	326.394	-317.776	1124.317	305.602	-318.119	982.260	315.749	-206.933	1002.029	405.255	-216.624	1015.588	406.772	-96.761	1024.431	380.937	90.894	1094.441	329.171	60.976	1076.687	426.586	102.081	1016.386	262.269	169.192	1054.993	209.166	138.774
724	3.61500	1197.964	1273.170	-465.996	1318.542	1272.353	-510.164	1070.114	1283.227	-515.352	1197.812	1219.340	-594.149	1493.290	1266.419	-480.071	1633.211	1198.435	-506.288	1624.642	1245.949	-444.130	1614.523	1356.844	-513.556	1582.321	1427.632	-604.592	1621.833	1445.930	-582.471	866.404	1268.666	-498.456	752.492	1194.575	-545.064	745.826	1238.905	-482.849	792.745	1358.902	-560.372	843.759	1414.284	-625.423	789.384	1430.038	-625.534	1311.759	750.582	-525.569	1263.342	861.727	-370.389	1346.622	851.909	-481.882	1072.611	746.785	-515.969	1149.018	854.544	-368.752	1049.005	837.957	-479.948	1380.735	514.891	-442.787	1381.190	402.901	-416.093	1396.367	386.721	-362.184	1390.139	542.883	-338.241	1372.095	426.740	-313.848	1381.290	308.364	-351.936	1254.731	317.936	-334.652	1394.748	306.083	-222.393	1376.420	312.279	-103.055	1392.482	382.246	-224.120	1379.240	394.943	-111.720	1357.143	364.952	63.697	1280.478	337.700	48.714	1299.813	422.589	87.264	1375.033	270.093	143.479	1339.398	216.459	121.054	1004.977	511.102	-434.134	1007.615	376.847	-399.048	1007.007	546.378	-319.145	1015.708	412.406	-289.057	995.503	326.397	-317.804	1124.301	305.646	-318.130	982.285	315.806	-206.930	1002.074	405.254	-216.616	1015.655	406.816	-96.753	1024.507	380.997	90.905	1094.466	329.259	60.983	1076.729	426.664	102.067	1017.196	262.560	169.281	1055.060	209.204	138.824
725	3.62000	1197.999	1273.097	-466.399	1318.625	1272.274	-510.705	1069.933	1283.338	-515.658	1197.835	1219.233	-594.545	1493.320	1266.248	-480.569	1633.164	1198.214	-506.714	1624.645	1245.760	-444.571	1613.811	1356.612	-514.124	1582.291	1427.364	-605.087	1621.819	1445.702	-582.952	866.379	1268.444	-498.826	752.468	1194.257	-545.366	745.795	1238.617	-483.192	792.727	1358.610	-560.830	843.643	1413.921	-625.918	789.062	1429.734	-626.004	1311.759	750.512	-525.698	1263.387	861.740	-370.597	1346.644	851.873	-482.136	1072.611	746.698	-516.026	1149.028	854.598	-368.910	1049.030	837.896	-480.106	1380.692	514.832	-442.870	1381.196	402.854	-416.119	1396.361	386.718	-362.234	1390.153	542.868	-338.302	1372.139	426.755	-313.928	1381.258	308.366	-351.967	1254.743	317.962	-334.663	1394.748	306.068	-222.389	1376.464	312.321	-103.065	1392.519	382.257	-224.150	1379.270	395.004	-111.708	1357.200	365.049	63.658	1280.581	337.768	48.717	1299.891	422.655	87.203	1375.141	270.193	143.509	1339.413	216.542	120.940	1004.941	511.067	-434.183	1007.635	376.853	-399.074	1006.365	547.253	-321.412	1015.732	412.410	-289.106	995.500	326.407	-317.764	1124.258	305.658	-318.128	982.258	315.817	-206.874	1002.073	405.270	-216.606	1015.036	406.962	-97.496	1024.558	381.049	90.885	1094.471	329.313	60.975	1076.787	426.695	102.005	1016.531	262.365	169.237	1055.148	209.233	138.862
